<?xml version="1.0" encoding="utf-8"?>
<svg width="1257.46" height="221" viewBox="0 0 1257.46 221" fill="none" xmlns="http://www.w3.org/2000/svg">
  <g id="Logo">
    <g id="Icon">
      <path id="Vector" d="M221 74C221 33.1254 187.875 0 147 0L74 0C33.1254 0 0 33.1254 0 74L0 147C0 187.875 33.1254 221 74 221L147 221C187.875 221 221 187.875 221 147L221 74L221 74ZM74 19L147 19C162.191 19 175.155 24.369 185.893 35.107C196.631 45.8451 202 58.8094 202 74L202 147C202 162.191 196.631 175.155 185.893 185.893C175.155 196.631 162.191 202 147 202L74 202C58.8094 202 45.8451 196.631 35.107 185.893C24.369 175.155 19 162.191 19 147L19 74C19 58.8094 24.369 45.8451 35.107 35.107C45.8451 24.369 58.8094 19 74 19L74 19Z" fill="#5C7AD7" fill-rule="evenodd" />
      <path id="Gimel" d="M72.1013 142.462C70.4439 142.462 69.1182 141.965 68.1236 140.971C67.2948 139.81 66.7143 138.402 66.3832 136.744L60.7381 108.334C59.1856 110.771 57.5037 113.114 55.6921 115.362C50.8854 121.329 45.6642 126.136 40.0287 129.783C33.896 133.926 28.0947 137.159 22.6249 139.479C17.3209 141.634 11.7683 143.291 5.96703 144.451C4.30952 144.617 2.90063 144.451 1.74039 143.954C0.580124 143.457 0 142.379 0 140.722L0 128.291C0 125.473 1.74039 123.402 5.22114 122.075C6.38139 121.578 8.53617 120.832 11.6854 119.838C14.8347 118.843 18.2326 117.6 21.8791 116.108C25.5255 114.451 28.6748 112.793 31.3268 111.136C35.4706 108.484 39.5315 105.086 43.5095 100.942C47.4875 96.6327 50.8025 92.2403 53.4545 87.7649C54.3816 86.2378 55.1562 84.7736 55.7783 83.3722L51.2169 60.4162C49.5594 51.6313 47.5704 44.3383 45.2499 38.537C43.0951 32.57 40.1116 28.0947 36.2994 25.1112C32.6528 21.9619 27.5975 20.3873 21.1332 20.3873L12.1826 20.3873C10.5252 20.3873 9.11628 19.8901 7.95599 18.8955C6.96152 17.7353 6.46427 16.3264 6.46427 14.669L6.46427 5.7184C6.46427 4.06089 6.96152 2.73487 7.95599 1.74038C9.11628 0.580128 10.5252 0 12.1826 0L21.3818 0C32.4871 0 41.4376 2.23764 48.2334 6.71289C55.0292 11.0224 60.4162 17.5696 64.394 26.3544C68.5376 35.1391 71.9355 46.0786 74.5875 59.1729L89.5053 136.744C89.837 138.402 89.4223 139.81 88.2619 140.971C87.102 141.965 85.6928 142.462 84.0353 142.462L72.1013 142.462L72.1013 142.462Z" fill="#5C7AD7" fill-rule="evenodd" transform="translate(70.886 38.041)" />
    </g>
    <path id="Path" d="M45.88 111.6C36.3733 111.6 28.2875 109.947 21.6225 106.64C14.9575 103.333 9.79083 98.5542 6.1225 92.3025C2.45416 86.0508 0.464996 78.585 0.154999 69.905C0.0516663 65.4617 0 60.6825 0 55.5675C0 50.4525 0.0516663 45.6217 0.154999 41.075C0.464996 32.4983 2.45416 25.1617 6.1225 19.065C9.79083 12.9683 15.0092 8.26666 21.7775 4.96C28.5458 1.65334 36.58 7.62939e-06 45.88 0C53.4233 0 60.0367 1.0075 65.72 3.0225C71.4033 5.03751 76.1308 7.62083 79.9025 10.7725C83.6742 13.9242 86.5158 17.3083 88.4275 20.925C90.3392 24.5417 91.3467 27.9 91.45 31C91.5533 31.93 91.295 32.705 90.675 33.325C90.055 33.945 89.2283 34.255 88.195 34.255L72.23 34.255C71.1967 34.255 70.4217 34.0483 69.905 33.635C69.3883 33.2217 68.9233 32.6017 68.51 31.775C67.6833 29.605 66.3917 27.4608 64.635 25.3425C62.8784 23.2242 60.5017 21.4417 57.505 19.995C54.5083 18.5483 50.6333 17.825 45.88 17.825C38.8533 17.825 33.2475 19.685 29.0625 23.405C24.8775 27.125 22.63 33.2733 22.32 41.85C22.01 50.84 22.01 59.9333 22.32 69.13C22.63 77.9133 24.9292 84.2167 29.2175 88.04C33.5058 91.8633 39.1633 93.775 46.19 93.775C50.84 93.775 54.9992 92.9483 58.6675 91.295C62.3358 89.6417 65.2292 87.0583 67.3475 83.545C69.4658 80.0317 70.525 75.5367 70.525 70.06L70.525 65.255L51.615 65.255C50.5817 65.255 49.7033 64.8933 48.98 64.17C48.2567 63.4467 47.895 62.5167 47.895 61.38L47.895 53.165C47.895 52.0283 48.2567 51.0983 48.98 50.375C49.7033 49.6517 50.5817 49.29 51.615 49.29L88.66 49.29C89.7967 49.29 90.7008 49.6517 91.3725 50.375C92.0442 51.0983 92.38 52.0283 92.38 53.165L92.38 69.44C92.38 78.12 90.4942 85.6117 86.7225 91.915C82.9508 98.2183 77.5775 103.075 70.6025 106.485C63.6275 109.895 55.3867 111.6 45.88 111.6L45.88 111.6ZM109.54 110.05C108.507 110.05 107.628 109.688 106.905 108.965C106.182 108.242 105.82 107.363 105.82 106.33L105.82 5.27C105.82 4.23666 106.182 3.35834 106.905 2.635C107.628 1.91167 108.507 1.55 109.54 1.55L124.11 1.55C125.247 1.55 126.151 1.91167 126.823 2.635C127.494 3.35834 127.83 4.23666 127.83 5.27L127.83 106.33C127.83 107.363 127.494 108.242 126.823 108.965C126.151 109.688 125.247 110.05 124.11 110.05L109.54 110.05ZM149.64 110.05C148.503 110.05 147.573 109.688 146.85 108.965C146.127 108.242 145.765 107.363 145.765 106.33L145.765 5.425C145.765 4.28834 146.127 3.35834 146.85 2.635C147.573 1.91167 148.503 1.55 149.64 1.55L161.885 1.55C163.332 1.55 164.417 1.93749 165.14 2.71249C165.863 3.48751 166.328 4.08167 166.535 4.495L196.45 60.295L226.675 4.495C226.882 4.08166 227.347 3.4875 228.07 2.71249C228.793 1.93751 229.878 1.55 231.325 1.55L243.415 1.55C244.552 1.55 245.482 1.91167 246.205 2.635C246.928 3.35834 247.29 4.28834 247.29 5.425L247.29 106.33C247.29 107.363 246.928 108.242 246.205 108.965C245.482 109.688 244.552 110.05 243.415 110.05L230.395 110.05C229.258 110.05 228.354 109.688 227.682 108.965C227.011 108.242 226.675 107.363 226.675 106.33L226.675 39.215L204.975 80.6C204.458 81.53 203.787 82.3308 202.96 83.0025C202.133 83.6742 201.048 84.01 199.705 84.01L193.35 84.01C191.903 84.01 190.792 83.6742 190.018 83.0025C189.242 82.3308 188.597 81.53 188.08 80.6L166.38 39.215L166.38 106.33C166.38 107.363 166.018 108.242 165.295 108.965C164.572 109.688 163.693 110.05 162.66 110.05L149.64 110.05ZM268.79 110.05C267.757 110.05 266.878 109.688 266.155 108.965C265.432 108.242 265.07 107.363 265.07 106.33L265.07 5.425C265.07 4.28834 265.432 3.35834 266.155 2.635C266.878 1.91167 267.757 1.55 268.79 1.55L336.99 1.55C338.127 1.55 339.057 1.91167 339.78 2.635C340.503 3.35834 340.865 4.28834 340.865 5.425L340.865 15.655C340.865 16.6883 340.503 17.5667 339.78 18.29C339.057 19.0133 338.127 19.375 336.99 19.375L285.995 19.375L285.995 46.81L333.58 46.81C334.717 46.81 335.647 47.1458 336.37 47.8175C337.093 48.4892 337.455 49.3933 337.455 50.53L337.455 60.14C337.455 61.2767 337.093 62.1808 336.37 62.8525C335.647 63.5242 334.717 63.86 333.58 63.86L285.995 63.86L285.995 92.225L338.23 92.225C339.367 92.225 340.297 92.5867 341.02 93.31C341.743 94.0333 342.105 94.9633 342.105 96.1L342.105 106.33C342.105 107.363 341.743 108.242 341.02 108.965C340.297 109.688 339.367 110.05 338.23 110.05L268.79 110.05ZM358.8 110.05C357.767 110.05 356.888 109.688 356.165 108.965C355.442 108.242 355.08 107.363 355.08 106.33L355.08 5.27C355.08 4.23666 355.442 3.35834 356.165 2.635C356.888 1.91167 357.767 1.55 358.8 1.55L373.215 1.55C374.248 1.55 375.127 1.91167 375.85 2.635C376.573 3.35834 376.935 4.23666 376.935 5.27L376.935 91.605L426.07 91.605C427.207 91.605 428.137 91.9667 428.86 92.69C429.583 93.4133 429.945 94.3433 429.945 95.48L429.945 106.33C429.945 107.363 429.583 108.242 428.86 108.965C428.137 109.688 427.207 110.05 426.07 110.05L358.8 110.05ZM501.465 111.6C491.855 111.6 483.821 110.179 477.363 107.337C470.904 104.496 465.996 100.776 462.638 96.1775C459.279 91.5792 457.497 86.7483 457.29 81.685C457.29 80.755 457.6 79.98 458.22 79.36C458.84 78.74 459.615 78.43 460.545 78.43L474.34 78.43C475.683 78.43 476.691 78.7142 477.363 79.2825C478.034 79.8508 478.628 80.5483 479.145 81.375C479.765 83.3383 480.953 85.2758 482.71 87.1875C484.467 89.0992 486.869 90.675 489.918 91.915C492.966 93.155 496.815 93.775 501.465 93.775C508.905 93.775 514.459 92.535 518.128 90.055C521.796 87.575 523.63 84.2167 523.63 79.98C523.63 76.9833 522.648 74.5808 520.685 72.7725C518.722 70.9642 515.699 69.3108 511.618 67.8125C507.536 66.3142 502.137 64.7383 495.42 63.085C487.67 61.225 481.186 58.9775 475.968 56.3425C470.749 53.7075 466.823 50.375 464.188 46.345C461.552 42.315 460.235 37.2 460.235 31C460.235 25.0067 461.863 19.685 465.118 15.035C468.373 10.385 473.023 6.71667 479.068 4.03C485.113 1.34333 492.32 0 500.69 0C507.407 0 513.348 0.904167 518.515 2.71249C523.682 4.52084 527.97 6.89751 531.38 9.8425C534.79 12.7875 537.399 15.9392 539.208 19.2975C541.016 22.6558 541.972 25.9367 542.075 29.14C542.075 29.9667 541.791 30.7158 541.223 31.3875C540.654 32.0592 539.853 32.395 538.82 32.395L524.405 32.395C523.578 32.395 522.752 32.1883 521.925 31.775C521.098 31.3617 520.427 30.5867 519.91 29.45C519.29 26.2467 517.275 23.5083 513.865 21.235C510.455 18.9617 506.063 17.825 500.69 17.825C495.11 17.825 490.615 18.8583 487.205 20.925C483.795 22.9917 482.09 26.195 482.09 30.535C482.09 33.4283 482.943 35.8308 484.648 37.7425C486.353 39.6542 489.091 41.3333 492.863 42.78C496.634 44.2267 501.62 45.7767 507.82 47.43C516.603 49.3933 523.785 51.6667 529.365 54.25C534.945 56.8333 539.027 60.1142 541.61 64.0925C544.193 68.0708 545.485 73.1083 545.485 79.205C545.485 86.025 543.651 91.8375 539.983 96.6425C536.314 101.448 531.173 105.142 524.56 107.725C517.947 110.308 510.248 111.6 501.465 111.6L501.465 111.6ZM583.26 110.05C582.227 110.05 581.348 109.688 580.625 108.965C579.902 108.242 579.54 107.363 579.54 106.33L579.54 20.615L550.865 20.615C549.832 20.615 548.953 20.2533 548.23 19.53C547.507 18.8067 547.145 17.9283 547.145 16.895L547.145 5.425C547.145 4.28834 547.507 3.35834 548.23 2.635C548.953 1.91167 549.832 1.55 550.865 1.55L629.915 1.55C631.052 1.55 631.982 1.91167 632.705 2.635C633.428 3.35834 633.79 4.28834 633.79 5.425L633.79 16.895C633.79 17.9283 633.428 18.8067 632.705 19.53C631.982 20.2533 631.052 20.615 629.915 20.615L601.395 20.615L601.395 106.33C601.395 107.363 601.033 108.242 600.31 108.965C599.587 109.688 598.657 110.05 597.52 110.05L583.26 110.05ZM686.29 111.6C677.3 111.6 669.498 110.076 662.885 107.027C656.272 103.979 651.157 99.2775 647.54 92.9225C643.923 86.5675 642.115 78.43 642.115 68.51L642.115 5.425C642.115 4.28834 642.477 3.35834 643.2 2.635C643.923 1.91167 644.802 1.55 645.835 1.55L659.94 1.55C661.077 1.55 661.981 1.91167 662.653 2.635C663.324 3.35834 663.66 4.28834 663.66 5.425L663.66 68.51C663.66 76.9833 665.675 83.2608 669.705 87.3425C673.735 91.4242 679.263 93.465 686.29 93.465C693.317 93.465 698.819 91.4242 702.798 87.3425C706.776 83.2608 708.765 76.9833 708.765 68.51L708.765 5.425C708.765 4.28834 709.127 3.35834 709.85 2.635C710.573 1.91167 711.503 1.55 712.64 1.55L726.59 1.55C727.727 1.55 728.631 1.91167 729.302 2.635C729.974 3.35834 730.31 4.28834 730.31 5.425L730.31 68.51C730.31 78.43 728.528 86.5675 724.963 92.9225C721.398 99.2775 716.334 103.979 709.773 107.027C703.211 110.076 695.383 111.6 686.29 111.6L686.29 111.6ZM750.88 110.05C749.847 110.05 748.968 109.688 748.245 108.965C747.522 108.242 747.16 107.363 747.16 106.33L747.16 5.425C747.16 4.28834 747.522 3.35834 748.245 2.635C748.968 1.91167 749.847 1.55 750.88 1.55L788.7 1.55C799.137 1.55 807.739 3.15166 814.507 6.355C821.276 9.55834 826.391 14.3117 829.853 20.615C833.314 26.9183 835.097 34.6167 835.2 43.71C835.407 48.2567 835.51 52.2867 835.51 55.8C835.51 59.3133 835.407 63.2917 835.2 67.735C834.993 77.345 833.237 85.2758 829.93 91.5275C826.623 97.7792 821.638 102.429 814.973 105.477C808.307 108.526 799.808 110.05 789.475 110.05L750.88 110.05ZM768.705 92.225L788.7 92.225C794.487 92.225 799.188 91.3983 802.805 89.745C806.422 88.0917 809.083 85.4308 810.787 81.7625C812.493 78.0942 813.397 73.2633 813.5 67.27C813.603 64.17 813.681 61.4575 813.733 59.1325C813.784 56.8075 813.784 54.4825 813.733 52.1575C813.681 49.8325 813.603 47.1717 813.5 44.175C813.293 35.7017 811.175 29.45 807.145 25.42C803.115 21.39 796.708 19.375 787.925 19.375L768.705 19.375L768.705 92.225ZM853.445 110.05C852.412 110.05 851.533 109.688 850.81 108.965C850.087 108.242 849.725 107.363 849.725 106.33L849.725 5.27C849.725 4.23666 850.087 3.35834 850.81 2.635C851.533 1.91167 852.412 1.55 853.445 1.55L868.015 1.55C869.152 1.55 870.056 1.91167 870.728 2.635C871.399 3.35834 871.735 4.23666 871.735 5.27L871.735 106.33C871.735 107.363 871.399 108.242 870.728 108.965C870.056 109.688 869.152 110.05 868.015 110.05L853.445 110.05ZM931.365 111.6C922.168 111.6 914.263 110.076 907.65 107.027C901.037 103.979 895.87 99.2775 892.15 92.9225C888.43 86.5675 886.415 78.6367 886.105 69.13C886.002 64.6867 885.95 60.295 885.95 55.955C885.95 51.615 886.002 47.1717 886.105 42.625C886.415 33.2217 888.482 25.3683 892.305 19.065C896.128 12.7617 901.373 8.00833 908.037 4.805C914.703 1.60167 922.478 0 931.365 0C940.252 0 948.053 1.60167 954.77 4.805C961.487 8.00834 966.757 12.7617 970.58 19.065C974.403 25.3683 976.47 33.2217 976.78 42.625C976.987 47.1717 977.09 51.615 977.09 55.955C977.09 60.295 976.987 64.6867 976.78 69.13C976.47 78.6367 974.455 86.5675 970.735 92.9225C967.015 99.2775 961.823 103.979 955.158 107.027C948.493 110.076 940.562 111.6 931.365 111.6L931.365 111.6ZM931.365 93.775C938.082 93.775 943.558 91.7858 947.795 87.8075C952.032 83.8292 954.305 77.345 954.615 68.355C954.822 63.8083 954.925 59.5975 954.925 55.7225C954.925 51.8475 954.822 47.6883 954.615 43.245C954.408 37.2517 953.297 32.3692 951.283 28.5975C949.267 24.8259 946.555 22.0875 943.145 20.3825C939.735 18.6775 935.808 17.825 931.365 17.825C927.025 17.825 923.15 18.6775 919.74 20.3825C916.33 22.0875 913.618 24.8258 911.603 28.5975C909.588 32.3692 908.477 37.2517 908.27 43.245C908.167 47.6883 908.115 51.8475 908.115 55.7225C908.115 59.5975 908.167 63.8083 908.27 68.355C908.58 77.345 910.853 83.8292 915.09 87.8075C919.327 91.7858 924.752 93.775 931.365 93.775L931.365 93.775Z" fill="#343640" transform="translate(280.37 53.537)" />
  </g>
</svg>