<?xml version="1.0" encoding="utf-8"?>
<svg width="370" height="370" viewBox="0 0 370 370" fill="none" xmlns="http://www.w3.org/2000/svg">
  <defs>
    <clipPath id="clip_path_1">
      <rect width="370" height="370" rx="123" />
    </clipPath>
  </defs>
  <g clip-path="url(#clip_path_1)">
    <rect width="370" height="370" fill="#FFFFFF" fill-rule="evenodd" />
    <rect id="Background" width="512" height="512" fill="#131A30" fill-rule="evenodd" />
    <g id="Icon">
      <path id="Vector" d="M370 123C370 55.0597 314.94 0 247 0L123 0C55.0597 0 0 55.0597 0 123L0 247C0 314.94 55.0597 370 123 370L247 370C314.94 370 370 314.94 370 247L370 123L370 123ZM123 29L247 29C259.765 29 271.96 31.4581 283.585 36.3744C294.828 41.1288 304.79 47.8469 313.471 56.5285C322.153 65.2101 328.871 75.1722 333.626 86.4146C338.542 98.0395 341 110.235 341 123L341 247C341 259.765 338.542 271.96 333.626 283.585C328.871 294.828 322.153 304.79 313.471 313.471C304.79 322.153 294.828 328.871 283.585 333.626C271.96 338.542 259.765 341 247 341L123 341C110.235 341 98.0396 338.542 86.4146 333.626C75.1722 328.871 65.2101 322.153 56.5285 313.471C47.8469 304.79 41.1288 294.828 36.3744 283.585C31.4581 271.96 29 259.765 29 247L29 123C29 110.235 31.4581 98.0396 36.3744 86.4146C41.1288 75.1721 47.8469 65.2101 56.5285 56.5285C65.2101 47.8469 75.1722 41.1288 86.4146 36.3744C98.0396 31.4581 110.235 29 123 29L123 29Z" fill="#5C7AD7" fill-rule="evenodd" />
      <path id="Gimel" d="M120.713 238.512C117.938 238.512 115.718 237.679 114.053 236.014C112.666 234.071 111.694 231.713 111.139 228.938L101.688 181.374C99.089 185.454 96.2731 189.376 93.2402 193.141C85.1927 203.131 76.4514 211.178 67.0165 217.283C56.7489 224.22 47.0363 229.632 37.8788 233.517C28.9989 237.124 19.7025 239.899 9.99007 241.842C7.21502 242.12 4.85627 241.842 2.91377 241.01C0.971245 240.177 0 238.373 0 235.598L0 214.786C0 210.068 2.91377 206.6 8.74126 204.379C10.6838 203.547 14.2913 202.298 19.5638 200.633C24.8364 198.968 30.5251 196.887 36.6301 194.389C42.7351 191.614 48.0077 188.839 52.4476 186.064C59.3852 181.624 66.1839 175.936 72.8439 168.998C79.504 161.783 85.0539 154.429 89.4939 146.937C91.0461 144.38 92.3429 141.929 93.3844 139.582L85.7478 101.149C82.9727 86.4415 79.6427 74.2315 75.7577 64.5189C72.1502 54.5289 67.1552 47.0363 60.7727 42.0414C54.6676 36.7689 46.2039 34.1326 35.3813 34.1326L20.3963 34.1326C17.6213 34.1326 15.2625 33.3001 13.32 31.6351C11.655 29.6926 10.8226 27.3338 10.8226 24.5589L10.8226 9.57379C10.8226 6.79878 11.655 4.57876 13.32 2.91376C15.2625 0.971249 17.6213 0 20.3963 0L35.7976 0C54.3901 0 69.3752 3.74627 80.7527 11.2388C92.1302 18.4538 101.149 29.4151 107.809 44.1227C114.746 58.8301 120.435 77.1451 124.875 99.0677L149.85 228.938C150.406 231.713 149.712 234.071 147.769 236.014C145.827 237.679 143.468 238.512 140.693 238.512L120.713 238.512L120.713 238.512Z" fill="#5C7AD7" fill-rule="evenodd" transform="translate(118.678 63.689)" />
    </g>
  </g>
</svg>